NFL Top 10 Trick Plays x264 CoLLuSioN

David Copperfield Works NFL Magic in New Episode of Top Ten


A magician never reveals his tricks. But someone elseΓÇÖs are fair game and David Copperfield told us how footballΓÇÖs most magical plays work. And while the worldΓÇÖs greatest magician canΓÇÖt make the officiating hullabaloo disappear, he did explain how offensive coordinators, through misdirection and deception, have developed their own style of enchantment. From the flea flicker to the double reverse, the worldΓÇÖs greatest magician, David Copperfield, gives us his opinions on footballΓÇÖs best trick plays of all-time. 

General 
Complete name : NFL Top 10 Trick Plays.mp4 
Format : MPEG-4 
Format profile : Base Media / Version 2 
Codec ID : mp42 
File size : 371 MiB 
Duration : 44mn 33s 
Overall bit rate mode : Variable 
Overall bit rate : 1 164 Kbps 
Encoded date : UTC 2012-09-29 07:46:44 
Tagged date : UTC 2012-09-29 08:36:53 
Writing application : HandBrake 4992svn 2012092801 

Video 
ID : 1 
Format : AVC 
Format/Info : Advanced Video Codec 
Format profile : High@L3.0 
Format settings, CABAC : Yes 
Format settings, ReFrames : 4 frames 
Codec ID : avc1 
Codec ID/Info : Advanced Video Coding 
Duration : 44mn 33s 
Bit rate mode : Variable 
Bit rate : 1 029 Kbps 
Width : 720 pixels 
Height : 400 pixels 
Display aspect ratio : 16:9 
Frame rate mode : Variable 
Frame rate : 29.970 fps 
Minimum frame rate : 14.985 fps 
Maximum frame rate : 30.303 fps 
Color space : YUV 
Chroma subsampling : 4:2:0 
Bit depth : 8 bits 
Scan type : Progressive 
Bits/(Pixel*Frame) : 0.119 
Stream size : 328 MiB (88%) 
Writing library : x264 core 125 
Encoding settings : cabac=1 / ref=4 / deblock=1:-3:-3 / analyse=0x3:0x133 / me=umh / subme=7 / psy=1 / psy_rd=1.00:0.15 / mixed_ref=1 / me_range=32 / chroma_me=1 / trellis=1 / 8x8dct=1 / cqm=0 / deadzone=21,11 / fast_pskip=1 / chroma_qp_offset=-3 / threads=6 / lookahead_threads=1 / sliced_threads=0 / nr=0 / decimate=1 / interlaced=0 / bluray_compat=0 / constrained_intra=0 / bframes=4 / b_pyramid=2 / b_adapt=2 / b_bias=0 / direct=3 / weightb=1 / open_gop=0 / weightp=2 / keyint=300 / keyint_min=30 / scenecut=40 / intra_refresh=0 / rc_lookahead=50 / rc=crf / mbtree=1 / crf=24.0 / qcomp=0.60 / qpmin=3 / qpmax=69 / qpstep=4 / ip_ratio=1.40 / aq=1:1.00 
Encoded date : UTC 2012-09-29 07:46:44 
Tagged date : UTC 2012-09-29 08:36:53 
Color primaries : BT.709 
Transfer characteristics : BT.709 
Matrix coefficients : BT.709 

Audio 
ID : 2 
Format : AAC 
Format/Info : Advanced Audio Codec 
Format profile : LC 
Codec ID : 40 
Duration : 44mn 33s 
Bit rate mode : Variable 
Bit rate : 128 Kbps 
Maximum bit rate : 196 Kbps 
Channel(s) : 2 channels 
Channel positions : Front: L R 
Sampling rate : 48.0 KHz 
Compression mode : Lossy 
Delay relative to video : 80ms 
Stream size : 40.8 MiB (11%) 
Encoded date : UTC 2012-09-29 07:46:44 
Tagged date : UTC 2012-09-29 08:36:51 
